/* XPM */
static char * links_48x48_xpm[] = {
"48 48 86 1",
" 	c #000000",
".	c #030000",
"+	c #000300",
"@	c #FF0000",
"#	c #00FF00",
"$	c #00FC00",
"%	c #E90000",
"&	c #A10000",
"*	c #910000",
"=	c #B30000",
"-	c #00EB00",
";	c #AF0000",
">	c #AB0000",
",	c #870000",
"'	c #550000",
")	c #200000",
"!	c #2F0000",
"~	c #640000",
"{	c #E70000",
"]	c #260000",
"^	c #4D0000",
"/	c #7E0000",
"(	c #00F700",
"_	c #810000",
":	c #00F500",
"<	c #830000",
"[	c #4F0000",
"}	c #860000",
"|	c #8A0000",
"1	c #530000",
"2	c #8F0000",
"3	c #8C0000",
"4	c #0000FF",
"5	c #00004D",
"6	c #000083",
"7	c #FFFFFF",
"8	c #00004F",
"9	c #000087",
"0	c #000053",
"a	c #00008C",
"b	c #00008F",
"c	c #000055",
"d	c #626262",
"e	c #262626",
"f	c #ADADAD",
"g	c #292929",
"h	c #00008A",
"i	c #555555",
"j	c #333333",
"k	c #000086",
"l	c #151515",
"m	c #646464",
"n	c #696969",
"o	c #919191",
"p	c #000081",
"q	c #F5F5F5",
"r	c #B9B9B9",
"s	c #424242",
"t	c #DBDBDB",
"u	c #4F4F4F",
"v	c #FCFCFC",
"w	c #000042",
"x	c #000071",
"y	c #B5B5B5",
"z	c #0000ED",
"A	c #000096",
"B	c #00000F",
"C	c #00001C",
"D	c #0000E7",
"E	c #0000F1",
"F	c #BBBBBB",
"G	c #6C6C6C",
"H	c #1C1C1C",
"I	c #0000C1",
"J	c #00003B",
"K	c #000037",
"L	c #000029",
"M	c #000015",
"N	c #373737",
"O	c #0F0F0F",
"P	c #0000C5",
"Q	c #000045",
"R	c #00003E",
"S	c #3E3E3E",
"T	c #676767",
"U	c #0000FD",
"                                                ",
"  ....................   ++++++++++++++++++++   ",
"  @@@@@@@@@@@@@@@@@@@@@  ####################$  ",
"  @@@@@@@@@@@@@@@@@@@@@  #####################  ",
"  @@@@@@@@@@@@@@@@@@@@@  #####################  ",
"  @@@@@@@@@@@@@@@@@@@@@  #####################  ",
"  @@@@@@@@@@@@@@@@@@@@@  #####################  ",
"  @@@%&&&&&&&&&&&&&&&&*  #####################  ",
"  @@@=                   -####################  ",
"  @@@%;>&,')       !~**  #####################  ",
"  @@@@@@@@@{]     '@@@@  ####################$  ",
"  @@@@@@@@@@^     /@@@@  ####################(  ",
"  @@@@@@@@@@^     _@@@@  ####################:  ",
"  @@@@@@@@@@^     <@@@@  ####################(  ",
"  @@@@@@@@@@[     }@@@@  ####################(  ",
"  @@@@@@@@@@[     |@@@@  #####################  ",
"  @@@@@@@@@@1     2@@@@  #####################  ",
"  @@@@@@@@@@'     2@@@@  #####################  ",
"  @@@@@@@@@@'     2@@@@  #####################  ",
"  @@@@@@@@@@1     2@@@@  #####################  ",
"  @@@@@@@@@@1     3@@@@  #####################  ",
"  @@@@@@@@@@[     ,@@@@  #####################  ",
"  @@@@@@@@@@^     <@@@@  #####################  ",
"                                                ",
"                                                ",
"  44444444445     64444  777777777777777777777  ",
"  44444444448     94444  777777777777777777777  ",
"  44444444440     a4444  777777777777777777777  ",
"  44444444440     b4444  777777777777777777777  ",
"  4444444444c     b4444  777777777777777dd7777  ",
"  4444444444c     b4444  777777777777777 e7777  ",
"  44444444440     b4444  77777777777777f g7777  ",
"  44444444448     h4444  77777777777777i j7777  ",
"  44444444448     k4444  77777777777777l m7777  ",
"  44444444445     64444  7777777777777n  o7777  ",
"  44444444445     p4444  777777777777ql  r7777  ",
"  44444444445     64444  777777777777s   t7777  ",
"  44444444445     64444  77777777777u    v7777  ",
"  4444444444w     x4444  777777777ye     77777  ",
"  44444444zAB     CAD4E  777777FGH      H77777  ",
"  444IJKLM           CL  NjgO           j77777  ",
"  444PQQQQQQQQQQQQQQQQR  SSSSSSSSSSSSSSST77777  ",
"  44444444444444444444U  777777777777777777777  ",
"  444444444444444444444  777777777777777777777  ",
"  444444444444444444444  777777777777777777777  ",
"  444444444444444444444  777777777777777777777  ",
"                                                ",
"                                                "};
